<svg xmlns="http://www.w3.org/2000/svg" xmlns:xlink="http://www.w3.org/1999/xlink" width="500" zoomAndPan="magnify" viewBox="0 0 375 374.999991" height="500" preserveAspectRatio="xMidYMid meet" version="1.0"><defs><clipPath id="74f0a1c96a"><path d="M 278 102 L 337.792969 102 L 337.792969 141 L 278 141 Z M 278 102 " clip-rule="nonzero"/></clipPath><clipPath id="3e71816ea1"><path d="M 262 72.050781 L 290 72.050781 L 290 125 L 262 125 Z M 262 72.050781 " clip-rule="nonzero"/></clipPath><clipPath id="0beb632439"><path d="M 40.042969 102 L 100 102 L 100 141 L 40.042969 141 Z M 40.042969 102 " clip-rule="nonzero"/></clipPath><clipPath id="5d8d1eff26"><path d="M 87 72.050781 L 115 72.050781 L 115 125 L 87 125 Z M 87 72.050781 " clip-rule="nonzero"/></clipPath></defs><path fill="#452c80" d="M 205.742188 299.238281 C 202.007812 302.972656 195.933594 302.980469 192.183594 299.25 C 192.183594 299.25 192.175781 299.242188 192.167969 299.238281 L 186.65625 293.714844 L 189.984375 290.386719 C 194.964844 285.40625 194.964844 277.304688 189.984375 272.324219 C 187.570312 269.914062 184.359375 268.582031 180.957031 268.582031 L 180.949219 268.582031 C 180.464844 268.582031 179.996094 268.617188 179.519531 268.671875 C 180.886719 266.402344 181.488281 263.808594 181.316406 261.25 L 205.804688 285.730469 C 209.484375 289.476562 209.464844 295.519531 205.742188 299.238281 Z M 205.742188 299.238281 " fill-opacity="1" fill-rule="nonzero"/><path fill="#452c80" d="M 187.742188 288.144531 L 183.28125 292.597656 L 178.828125 297.050781 C 175.085938 300.792969 169 300.792969 165.257812 297.050781 C 163.445312 295.242188 162.449219 292.832031 162.449219 290.265625 C 162.449219 287.707031 163.445312 285.296875 165.257812 283.480469 L 169.710938 279.027344 C 169.710938 279.027344 169.710938 279.027344 169.714844 279.027344 L 173.167969 275.570312 L 173.351562 275.390625 L 174.171875 274.574219 C 175.980469 272.761719 178.390625 271.757812 180.949219 271.757812 L 180.957031 271.757812 C 183.515625 271.757812 185.925781 272.753906 187.742188 274.574219 C 191.476562 278.316406 191.476562 284.402344 187.742188 288.144531 Z M 187.742188 288.144531 " fill-opacity="1" fill-rule="nonzero"/><path fill="#452c80" d="M 175.378906 268.867188 L 167.46875 276.777344 C 167.46875 276.777344 167.46875 276.777344 167.46875 276.785156 L 163.011719 281.238281 C 159.269531 284.980469 153.183594 284.980469 149.441406 281.238281 C 145.707031 277.5 145.699219 271.421875 149.429688 267.679688 C 149.433594 267.671875 149.433594 267.671875 149.441406 267.667969 L 160.070312 257.035156 C 160.078125 257.03125 160.078125 257.03125 160.078125 257.03125 L 161.824219 255.28125 C 165.554688 251.566406 171.617188 251.566406 175.359375 255.277344 C 175.363281 255.289062 175.371094 255.296875 175.378906 255.300781 L 175.449219 255.371094 C 179.113281 259.121094 179.09375 265.148438 175.378906 268.867188 Z M 175.378906 268.867188 " fill-opacity="1" fill-rule="nonzero"/><path fill="#452c80" d="M 162.289062 250.328125 L 159.574219 253.039062 C 159.574219 253.046875 159.570312 253.046875 159.5625 253.054688 L 151.660156 260.957031 C 151.652344 260.964844 151.652344 260.964844 151.652344 260.964844 L 147.191406 265.421875 L 147.1875 265.429688 C 143.445312 269.160156 137.363281 269.160156 133.628906 265.421875 C 129.882812 261.679688 129.882812 255.59375 133.628906 251.851562 L 144.257812 241.214844 L 144.261719 241.214844 L 148.71875 236.753906 C 152.460938 233.011719 158.546875 233.011719 162.289062 236.753906 C 166.03125 240.496094 166.03125 246.585938 162.289062 250.328125 Z M 162.289062 250.328125 " fill-opacity="1" fill-rule="nonzero"/><path fill="#452c80" d="M 149.28125 227.726562 C 149.28125 230.285156 148.285156 232.695312 146.472656 234.511719 L 131.378906 249.601562 C 127.636719 253.34375 121.546875 253.34375 117.804688 249.601562 C 114.070312 245.867188 114.070312 239.773438 117.804688 236.039062 L 122.246094 231.597656 C 122.253906 231.589844 122.261719 231.589844 122.265625 231.582031 C 122.273438 231.578125 122.273438 231.570312 122.28125 231.558594 L 132.902344 220.941406 C 134.714844 219.128906 137.121094 218.132812 139.6875 218.125 C 140.964844 218.125 142.210938 218.378906 143.359375 218.855469 C 144.511719 219.332031 145.566406 220.03125 146.472656 220.941406 C 148.285156 222.75 149.28125 225.160156 149.28125 227.726562 Z M 149.28125 227.726562 " fill-opacity="1" fill-rule="nonzero"/><path fill="#452c80" d="M 301.542969 175.128906 C 301.542969 177.203125 300.742188 179.152344 299.289062 180.605469 L 291.804688 188.085938 C 290.347656 189.539062 288.402344 190.339844 286.328125 190.339844 C 284.246094 190.339844 282.304688 189.539062 280.847656 188.085938 L 249.988281 157.230469 L 230.140625 137.375 C 230.132812 137.371094 230.128906 137.363281 230.121094 137.355469 L 222.613281 129.855469 C 219.59375 126.828125 219.59375 121.917969 222.613281 118.894531 L 230.097656 111.414062 C 231.550781 109.960938 233.496094 109.160156 235.574219 109.160156 C 237.652344 109.160156 239.59375 109.960938 241.050781 111.414062 L 299.289062 169.648438 C 300.742188 171.109375 301.542969 173.050781 301.542969 175.128906 Z M 301.542969 175.128906 " fill-opacity="1" fill-rule="nonzero"/><path fill="#452c80" d="M 155.273438 128.734375 L 147.746094 136.269531 C 147.679688 136.328125 147.644531 136.367188 147.625 136.386719 L 105.492188 178.515625 L 97.042969 186.972656 C 95.585938 188.429688 93.636719 189.230469 91.558594 189.230469 C 89.480469 189.230469 87.535156 188.429688 86.082031 186.972656 L 78.605469 179.488281 C 75.578125 176.472656 75.578125 171.554688 78.605469 168.527344 L 136.835938 110.296875 C 138.289062 108.84375 140.242188 108.042969 142.3125 108.042969 C 144.390625 108.042969 146.335938 108.84375 147.796875 110.296875 L 155.273438 117.78125 C 158.292969 120.800781 158.292969 125.71875 155.273438 128.734375 Z M 155.273438 128.734375 " fill-opacity="1" fill-rule="nonzero"/><path fill="#452c80" d="M 255.972656 254.550781 C 252.230469 258.289062 246.144531 258.292969 242.402344 254.550781 C 242.402344 254.546875 242.398438 254.546875 242.398438 254.546875 L 205.988281 218.136719 C 205.375 217.523438 204.371094 217.523438 203.746094 218.136719 C 203.125 218.761719 203.125 219.765625 203.746094 220.386719 L 245.292969 261.933594 C 249.035156 265.675781 249.035156 271.765625 245.292969 275.507812 C 243.484375 277.324219 241.070312 278.320312 238.507812 278.320312 C 235.941406 278.320312 233.535156 277.324219 231.722656 275.507812 L 190.175781 233.957031 C 189.554688 233.34375 188.546875 233.34375 187.925781 233.957031 C 187.304688 234.582031 187.304688 235.585938 187.925781 236.207031 L 225.503906 273.785156 C 225.507812 273.789062 225.515625 273.796875 225.519531 273.804688 C 227.332031 275.613281 228.328125 278.023438 228.328125 280.589844 C 228.328125 283.148438 227.332031 285.5625 225.519531 287.375 C 221.773438 291.117188 215.6875 291.117188 211.941406 287.382812 L 208.046875 283.480469 C 208.027344 283.460938 208.011719 283.441406 207.992188 283.417969 C 207.976562 283.410156 207.964844 283.398438 207.953125 283.390625 L 177.695312 253.128906 C 177.671875 253.101562 177.652344 253.078125 177.625 253.050781 C 174.683594 250.109375 170.65625 248.921875 166.824219 249.457031 C 169.335938 244.640625 168.570312 238.546875 164.539062 234.511719 C 161.132812 231.105469 156.277344 230.03125 151.949219 231.277344 C 152.28125 230.140625 152.457031 228.945312 152.457031 227.726562 C 152.457031 224.3125 151.132812 221.105469 148.714844 218.691406 C 146.300781 216.28125 143.101562 214.949219 139.6875 214.949219 C 139.6875 214.949219 139.6875 214.949219 139.679688 214.949219 C 136.277344 214.953125 133.066406 216.28125 130.652344 218.691406 L 121.1875 228.164062 C 99.976562 205.691406 100.644531 190.21875 100.957031 187.550781 L 124.261719 164.238281 L 149.917969 138.582031 C 150.398438 138.117188 157.953125 131.046875 175.453125 130.429688 C 181.515625 130.222656 187.558594 130.195312 192.917969 130.265625 C 182.289062 134.867188 174.832031 142.914062 174.164062 143.652344 L 136.886719 180.921875 C 134.472656 183.339844 133.144531 186.546875 133.144531 189.957031 C 133.144531 193.371094 134.472656 196.574219 136.886719 198.988281 C 141.867188 203.96875 149.972656 203.976562 154.957031 198.992188 C 154.960938 198.980469 154.96875 198.972656 154.980469 198.960938 L 177.683594 176.261719 C 181.425781 172.519531 187.511719 172.519531 191.261719 176.261719 L 255.972656 240.972656 C 259.71875 244.714844 259.71875 250.808594 255.972656 254.550781 Z M 255.972656 254.550781 " fill-opacity="1" fill-rule="nonzero"/><path fill="#452c80" d="M 251.710938 232.21875 L 193.503906 174.011719 C 191.015625 171.519531 187.742188 170.277344 184.476562 170.277344 C 181.203125 170.277344 177.933594 171.519531 175.441406 174.011719 L 152.707031 196.746094 C 152.703125 196.753906 152.695312 196.757812 152.6875 196.765625 C 148.945312 200.488281 142.871094 200.480469 139.136719 196.738281 C 137.320312 194.929688 136.320312 192.519531 136.320312 189.960938 C 136.320312 187.394531 137.320312 184.984375 139.136719 183.175781 L 176.433594 145.871094 C 176.457031 145.851562 176.476562 145.828125 176.488281 145.808594 C 176.625 145.667969 188.644531 132.507812 203.53125 130.515625 C 208.339844 130.671875 211.792969 130.863281 212.933594 130.933594 L 213.113281 130.941406 C 218.367188 132.167969 223.316406 135.058594 227.871094 139.601562 L 257.277344 169.011719 L 277.570312 189.304688 C 277.914062 190.925781 278.929688 202.203125 251.710938 232.21875 Z M 251.710938 232.21875 " fill-opacity="1" fill-rule="nonzero"/><path fill="#452c80" d="M 329.917969 144.511719 C 329.917969 148.222656 326.902344 151.246094 323.183594 151.246094 C 319.46875 151.246094 316.445312 148.222656 316.445312 144.511719 C 316.445312 143.222656 316.8125 142.019531 317.441406 141 L 313.214844 136.773438 L 304.359375 127.914062 L 287.414062 144.855469 C 287.414062 144.859375 287.40625 144.859375 287.402344 144.867188 C 287.394531 144.867188 287.394531 144.875 287.394531 144.875 L 286.523438 145.746094 C 286.210938 146.054688 285.804688 146.207031 285.398438 146.207031 C 284.992188 146.207031 284.585938 146.054688 284.273438 145.746094 C 283.65625 145.121094 283.65625 144.117188 284.273438 143.5 L 285.164062 142.613281 C 285.175781 142.597656 285.183594 142.59375 285.195312 142.582031 L 303.226562 124.546875 C 303.539062 124.238281 303.945312 124.078125 304.351562 124.078125 C 304.757812 124.078125 305.171875 124.238281 305.484375 124.546875 L 314.199219 133.265625 L 319.695312 138.753906 C 320.710938 138.132812 321.90625 137.769531 323.183594 137.769531 C 326.902344 137.769531 329.917969 140.792969 329.917969 144.511719 Z M 329.917969 144.511719 " fill-opacity="1" fill-rule="nonzero"/><path fill="#452c80" d="M 269.425781 107.761719 L 259.875 117.3125 C 259.875 117.316406 259.871094 117.316406 259.871094 117.316406 L 258.972656 118.207031 C 258.664062 118.511719 258.261719 118.664062 257.855469 118.664062 C 257.449219 118.664062 257.042969 118.511719 256.730469 118.195312 C 256.109375 117.570312 256.113281 116.566406 256.738281 115.953125 L 257.554688 115.136719 C 257.574219 115.113281 257.601562 115.085938 257.632812 115.054688 L 266.058594 106.636719 L 262.289062 102.871094 L 255.207031 95.785156 C 254.15625 96.425781 252.957031 96.777344 251.703125 96.777344 C 249.898438 96.777344 248.210938 96.078125 246.941406 94.804688 C 244.308594 92.175781 244.308594 87.898438 246.933594 85.277344 C 248.210938 84.003906 249.898438 83.304688 251.699219 83.304688 C 253.503906 83.304688 255.191406 84.003906 256.464844 85.277344 C 258.699219 87.511719 259.023438 90.945312 257.449219 93.535156 L 263.796875 99.875 L 269.425781 105.507812 C 269.578125 105.660156 269.691406 105.835938 269.769531 106.027344 C 269.851562 106.21875 269.894531 106.425781 269.894531 106.636719 C 269.894531 107.054688 269.722656 107.464844 269.425781 107.761719 Z M 269.425781 107.761719 " fill-opacity="1" fill-rule="nonzero"/><g clip-path="url(#74f0a1c96a)"><path fill="#452c80" d="M 337.207031 109.300781 C 337.207031 113.015625 334.183594 116.039062 330.464844 116.039062 C 327.230469 116.039062 324.523438 113.746094 323.875 110.703125 L 310.152344 110.695312 L 280.824219 140.03125 C 280.511719 140.351562 280.105469 140.503906 279.691406 140.503906 C 279.292969 140.503906 278.886719 140.351562 278.574219 140.046875 C 277.953125 139.421875 277.953125 138.417969 278.566406 137.796875 L 279.457031 136.898438 L 308.375 107.992188 C 308.664062 107.691406 309.074219 107.519531 309.492188 107.519531 L 323.972656 107.527344 C 324.753906 104.671875 327.363281 102.5625 330.464844 102.5625 C 334.183594 102.5625 337.207031 105.589844 337.207031 109.300781 Z M 337.207031 109.300781 " fill-opacity="1" fill-rule="nonzero"/></g><g clip-path="url(#3e71816ea1)"><path fill="#452c80" d="M 284.558594 104.507812 L 264.933594 124.140625 C 264.621094 124.460938 264.214844 124.613281 263.800781 124.613281 C 263.402344 124.613281 262.996094 124.460938 262.683594 124.15625 C 262.0625 123.53125 262.0625 122.527344 262.675781 121.90625 L 263.566406 121.007812 L 281.847656 102.730469 L 281.832031 85.402344 C 278.765625 84.773438 276.445312 82.054688 276.445312 78.800781 C 276.445312 75.085938 279.46875 72.058594 283.179688 72.058594 C 286.898438 72.058594 289.921875 75.085938 289.921875 78.800781 C 289.921875 81.882812 287.839844 84.476562 285.011719 85.277344 L 285.023438 103.382812 C 285.023438 103.808594 284.859375 104.210938 284.558594 104.507812 Z M 284.558594 104.507812 " fill-opacity="1" fill-rule="nonzero"/></g><path fill="#452c80" d="M 281.800781 122.617188 L 273.492188 130.925781 C 273.480469 130.941406 273.464844 130.945312 273.460938 130.953125 C 273.453125 130.960938 273.441406 130.972656 273.433594 130.976562 L 272.597656 131.816406 C 272.285156 132.128906 271.878906 132.28125 271.472656 132.28125 C 271.0625 132.28125 270.65625 132.128906 270.347656 131.816406 C 269.730469 131.195312 269.730469 130.191406 270.347656 129.566406 L 271.210938 128.710938 C 271.222656 128.699219 271.234375 128.683594 271.242188 128.671875 L 279.8125 120.113281 C 279.191406 119.089844 278.820312 117.894531 278.820312 116.613281 C 278.820312 112.902344 281.847656 109.878906 285.558594 109.878906 C 289.273438 109.878906 292.296875 112.902344 292.296875 116.613281 C 292.296875 120.328125 289.273438 123.355469 285.558594 123.355469 C 284.273438 123.355469 283.078125 122.984375 282.054688 122.363281 Z M 281.800781 122.617188 " fill-opacity="1" fill-rule="nonzero"/><path fill="#452c80" d="M 106.808594 129.191406 C 107.429688 129.808594 107.429688 130.820312 106.808594 131.4375 C 106.496094 131.746094 106.089844 131.898438 105.683594 131.898438 C 105.277344 131.898438 104.871094 131.746094 104.558594 131.4375 L 104.070312 130.941406 C 104.0625 130.933594 104.058594 130.933594 104.050781 130.925781 L 95.484375 122.363281 C 94.460938 122.984375 93.269531 123.355469 91.984375 123.355469 C 88.269531 123.355469 85.242188 120.328125 85.242188 116.613281 C 85.242188 112.902344 88.269531 109.878906 91.984375 109.878906 C 95.695312 109.878906 98.71875 112.902344 98.71875 116.613281 C 98.71875 117.894531 98.351562 119.089844 97.726562 120.113281 L 106.300781 128.671875 C 106.332031 128.703125 106.355469 128.734375 106.382812 128.765625 Z M 106.808594 129.191406 " fill-opacity="1" fill-rule="nonzero"/><path fill="#452c80" d="M 130.601562 94.804688 C 129.332031 96.078125 127.636719 96.777344 125.835938 96.777344 C 124.578125 96.777344 123.378906 96.425781 122.335938 95.785156 L 111.492188 106.628906 L 119.914062 115.0625 L 119.992188 115.136719 L 120.417969 115.558594 C 121.039062 116.175781 121.046875 117.183594 120.429688 117.808594 C 120.117188 118.117188 119.710938 118.277344 119.300781 118.277344 C 118.898438 118.277344 118.492188 118.125 118.1875 117.820312 L 117.691406 117.332031 C 117.679688 117.324219 117.671875 117.316406 117.667969 117.3125 L 108.109375 107.761719 C 107.816406 107.464844 107.648438 107.054688 107.648438 106.636719 C 107.648438 106.21875 107.816406 105.8125 108.109375 105.511719 L 120.085938 93.542969 C 119.453125 92.492188 119.101562 91.292969 119.101562 90.042969 C 119.101562 88.242188 119.800781 86.546875 121.078125 85.277344 C 122.347656 84.003906 124.039062 83.304688 125.84375 83.304688 C 127.640625 83.304688 129.332031 84.003906 130.601562 85.277344 C 133.234375 87.898438 133.234375 92.175781 130.601562 94.804688 Z M 130.601562 94.804688 " fill-opacity="1" fill-rule="nonzero"/><g clip-path="url(#0beb632439)"><path fill="#452c80" d="M 98.585938 139.652344 C 98.273438 139.960938 97.867188 140.113281 97.460938 140.113281 C 97.054688 140.113281 96.648438 139.960938 96.335938 139.652344 L 67.394531 110.695312 L 53.660156 110.703125 C 53.015625 113.746094 50.3125 116.039062 47.078125 116.039062 C 43.359375 116.039062 40.335938 113.015625 40.335938 109.300781 C 40.335938 105.589844 43.359375 102.5625 47.078125 102.5625 C 50.175781 102.5625 52.78125 104.671875 53.5625 107.527344 L 68.050781 107.519531 C 68.476562 107.519531 68.875 107.691406 69.175781 107.992188 L 98.585938 137.410156 C 99.207031 138.023438 99.207031 139.027344 98.585938 139.652344 Z M 98.585938 139.652344 " fill-opacity="1" fill-rule="nonzero"/></g><g clip-path="url(#5d8d1eff26)"><path fill="#452c80" d="M 114.476562 121.515625 C 115.097656 122.132812 115.097656 123.136719 114.476562 123.761719 C 114.164062 124.070312 113.757812 124.222656 113.351562 124.222656 C 112.945312 124.222656 112.539062 124.070312 112.226562 123.761719 L 92.976562 104.507812 C 92.675781 104.210938 92.511719 103.804688 92.511719 103.382812 L 92.53125 85.277344 C 89.703125 84.480469 87.621094 81.882812 87.621094 78.800781 C 87.621094 75.085938 90.644531 72.058594 94.355469 72.058594 C 98.070312 72.058594 101.097656 75.085938 101.097656 78.800781 C 101.097656 82.054688 98.777344 84.773438 95.707031 85.402344 L 95.6875 102.730469 Z M 114.476562 121.515625 " fill-opacity="1" fill-rule="nonzero"/></g><path fill="#452c80" d="M 92.878906 143.121094 C 93.503906 143.738281 93.503906 144.742188 92.878906 145.363281 C 92.570312 145.675781 92.164062 145.828125 91.757812 145.828125 C 91.347656 145.828125 90.941406 145.675781 90.632812 145.363281 L 90.128906 144.855469 L 73.183594 127.914062 L 60.101562 141 C 60.722656 142.019531 61.09375 143.222656 61.09375 144.511719 C 61.09375 148.222656 58.074219 151.246094 54.359375 151.246094 C 50.640625 151.246094 47.621094 148.222656 47.621094 144.511719 C 47.621094 140.792969 50.640625 137.769531 54.359375 137.769531 C 55.636719 137.769531 56.828125 138.140625 57.847656 138.753906 L 72.058594 124.546875 C 72.140625 124.464844 72.226562 124.402344 72.3125 124.339844 C 72.402344 124.28125 72.492188 124.238281 72.585938 124.199219 C 73.058594 124.007812 73.597656 124.050781 74.035156 124.324219 C 74.042969 124.332031 74.046875 124.339844 74.0625 124.339844 C 74.066406 124.351562 74.078125 124.359375 74.085938 124.363281 C 74.164062 124.421875 74.238281 124.476562 74.308594 124.542969 L 92.371094 142.605469 C 92.398438 142.632812 92.429688 142.65625 92.453125 142.6875 Z M 92.878906 143.121094 " fill-opacity="1" fill-rule="nonzero"/></svg>